<svg id="visual" viewBox="0 0 960 540" width="960" height="540" xmlns="http://www.w3.org/2000/svg" xmlns:xlink="http://www.w3.org/1999/xlink" version="1.1"><rect x="0" y="0" width="960" height="540" fill="#c4c4c4"></rect><defs><linearGradient id="grad1_0" x1="43.8%" y1="0%" x2="100%" y2="100%"><stop offset="14.444444444444446%" stop-color="#efefef" stop-opacity="1"></stop><stop offset="85.55555555555554%" stop-color="#efefef" stop-opacity="1"></stop></linearGradient></defs><defs><linearGradient id="grad1_1" x1="43.8%" y1="0%" x2="100%" y2="100%"><stop offset="14.444444444444446%" stop-color="#efefef" stop-opacity="1"></stop><stop offset="85.55555555555554%" stop-color="#e8e8e8" stop-opacity="1"></stop></linearGradient></defs><defs><linearGradient id="grad1_2" x1="43.8%" y1="0%" x2="100%" y2="100%"><stop offset="14.444444444444446%" stop-color="#e0e0e0" stop-opacity="1"></stop><stop offset="85.55555555555554%" stop-color="#e8e8e8" stop-opacity="1"></stop></linearGradient></defs><defs><linearGradient id="grad1_3" x1="43.8%" y1="0%" x2="100%" y2="100%"><stop offset="14.444444444444446%" stop-color="#e0e0e0" stop-opacity="1"></stop><stop offset="85.55555555555554%" stop-color="#d9d9d9" stop-opacity="1"></stop></linearGradient></defs><defs><linearGradient id="grad1_4" x1="43.8%" y1="0%" x2="100%" y2="100%"><stop offset="14.444444444444446%" stop-color="#d2d2d2" stop-opacity="1"></stop><stop offset="85.55555555555554%" stop-color="#d9d9d9" stop-opacity="1"></stop></linearGradient></defs><defs><linearGradient id="grad1_5" x1="43.8%" y1="0%" x2="100%" y2="100%"><stop offset="14.444444444444446%" stop-color="#d2d2d2" stop-opacity="1"></stop><stop offset="85.55555555555554%" stop-color="#cbcbcb" stop-opacity="1"></stop></linearGradient></defs><defs><linearGradient id="grad1_6" x1="43.8%" y1="0%" x2="100%" y2="100%"><stop offset="14.444444444444446%" stop-color="#c4c4c4" stop-opacity="1"></stop><stop offset="85.55555555555554%" stop-color="#cbcbcb" stop-opacity="1"></stop></linearGradient></defs><defs><linearGradient id="grad2_0" x1="0%" y1="0%" x2="56.3%" y2="100%"><stop offset="14.444444444444446%" stop-color="#efefef" stop-opacity="1"></stop><stop offset="85.55555555555554%" stop-color="#efefef" stop-opacity="1"></stop></linearGradient></defs><defs><linearGradient id="grad2_1" x1="0%" y1="0%" x2="56.3%" y2="100%"><stop offset="14.444444444444446%" stop-color="#e8e8e8" stop-opacity="1"></stop><stop offset="85.55555555555554%" stop-color="#efefef" stop-opacity="1"></stop></linearGradient></defs><defs><linearGradient id="grad2_2" x1="0%" y1="0%" x2="56.3%" y2="100%"><stop offset="14.444444444444446%" stop-color="#e8e8e8" stop-opacity="1"></stop><stop offset="85.55555555555554%" stop-color="#e0e0e0" stop-opacity="1"></stop></linearGradient></defs><defs><linearGradient id="grad2_3" x1="0%" y1="0%" x2="56.3%" y2="100%"><stop offset="14.444444444444446%" stop-color="#d9d9d9" stop-opacity="1"></stop><stop offset="85.55555555555554%" stop-color="#e0e0e0" stop-opacity="1"></stop></linearGradient></defs><defs><linearGradient id="grad2_4" x1="0%" y1="0%" x2="56.3%" y2="100%"><stop offset="14.444444444444446%" stop-color="#d9d9d9" stop-opacity="1"></stop><stop offset="85.55555555555554%" stop-color="#d2d2d2" stop-opacity="1"></stop></linearGradient></defs><defs><linearGradient id="grad2_5" x1="0%" y1="0%" x2="56.3%" y2="100%"><stop offset="14.444444444444446%" stop-color="#cbcbcb" stop-opacity="1"></stop><stop offset="85.55555555555554%" stop-color="#d2d2d2" stop-opacity="1"></stop></linearGradient></defs><defs><linearGradient id="grad2_6" x1="0%" y1="0%" x2="56.3%" y2="100%"><stop offset="14.444444444444446%" stop-color="#cbcbcb" stop-opacity="1"></stop><stop offset="85.55555555555554%" stop-color="#c4c4c4" stop-opacity="1"></stop></linearGradient></defs><g transform="translate(960, 0)"><path d="M0 459C-38.1 447.4 -76.3 435.7 -113.9 425C-151.5 414.3 -188.6 404.5 -224.5 388.8C-260.4 373.2 -295.1 351.8 -324.6 324.6C-354 297.3 -378.2 264.1 -395.8 228.5C-413.3 192.9 -424.3 154.7 -433.7 116.2C-443.1 77.7 -451.1 38.9 -459 0L0 0Z" fill="#c8c8c8"></path><path d="M0 393.4C-32.7 383.5 -65.4 373.5 -97.6 364.3C-129.9 355.1 -161.7 346.7 -192.4 333.3C-223.2 319.9 -253 301.6 -278.2 278.2C-303.4 254.8 -324.2 226.4 -339.2 195.9C-354.3 165.3 -363.7 132.6 -371.7 99.6C-379.8 66.6 -386.6 33.3 -393.4 0L0 0Z" fill="#cfcfcf"></path><path d="M0 327.9C-27.2 319.5 -54.5 311.2 -81.3 303.6C-108.2 295.9 -134.7 288.9 -160.4 277.7C-186 266.6 -210.8 251.3 -231.8 231.8C-252.9 212.3 -270.1 188.7 -282.7 163.2C-295.2 137.8 -303 110.5 -309.8 83C-316.5 55.5 -322.2 27.8 -327.9 0L0 0Z" fill="#d6d6d6"></path><path d="M0 262.3C-21.8 255.6 -43.6 249 -65.1 242.9C-86.6 236.7 -107.8 231.1 -128.3 222.2C-148.8 213.3 -168.6 201 -185.5 185.5C-202.3 169.9 -216.1 150.9 -226.2 130.6C-236.2 110.2 -242.4 88.4 -247.8 66.4C-253.2 44.4 -257.8 22.2 -262.3 0L0 0Z" fill="#dddddd"></path><path d="M0 196.7C-16.3 191.7 -32.7 186.7 -48.8 182.1C-64.9 177.5 -80.8 173.3 -96.2 166.6C-111.6 160 -126.5 150.8 -139.1 139.1C-151.7 127.4 -162.1 113.2 -169.6 97.9C-177.1 82.7 -181.8 66.3 -185.9 49.8C-189.9 33.3 -193.3 16.7 -196.7 0L0 0Z" fill="#e4e4e4"></path><path d="M0 131.1C-10.9 127.8 -21.8 124.5 -32.5 121.4C-43.3 118.4 -53.9 115.6 -64.1 111.1C-74.4 106.6 -84.3 100.5 -92.7 92.7C-101.1 84.9 -108.1 75.5 -113.1 65.3C-118.1 55.1 -121.2 44.2 -123.9 33.2C-126.6 22.2 -128.9 11.1 -131.1 0L0 0Z" fill="#ebebeb"></path><path d="M0 65.6C-5.4 63.9 -10.9 62.2 -16.3 60.7C-21.6 59.2 -26.9 57.8 -32.1 55.5C-37.2 53.3 -42.2 50.3 -46.4 46.4C-50.6 42.5 -54 37.7 -56.5 32.6C-59 27.6 -60.6 22.1 -62 16.6C-63.3 11.1 -64.4 5.6 -65.6 0L0 0Z" fill="#efefef"></path></g><g transform="translate(0, 540)"><path d="M0 -459C38.9 -449.3 77.7 -439.5 114.7 -427.9C151.6 -416.3 186.5 -402.7 223.5 -387.1C260.5 -371.5 299.5 -353.9 324.6 -324.6C349.6 -295.2 360.6 -254.2 378.5 -218.5C396.3 -182.8 421.1 -152.3 435.6 -116.7C450.2 -81.2 454.6 -40.6 459 0L0 0Z" fill="#c8c8c8"></path><path d="M0 -393.4C33.3 -385.1 66.6 -376.8 98.3 -366.8C129.9 -356.8 159.9 -345.2 191.6 -331.8C223.3 -318.4 256.7 -303.3 278.2 -278.2C299.6 -253.1 309.1 -217.9 324.4 -187.3C339.7 -156.6 360.9 -130.5 373.4 -100.1C385.9 -69.6 389.7 -34.8 393.4 0L0 0Z" fill="#cfcfcf"></path><path d="M0 -327.9C27.8 -320.9 55.5 -314 81.9 -305.6C108.3 -297.3 133.2 -287.6 159.6 -276.5C186.1 -265.4 214 -252.8 231.8 -231.8C249.7 -210.9 257.6 -181.6 270.3 -156.1C283.1 -130.5 300.8 -108.8 311.2 -83.4C321.6 -58 324.7 -29 327.9 0L0 0Z" fill="#d6d6d6"></path><path d="M0 -262.3C22.2 -256.7 44.4 -251.2 65.5 -244.5C86.6 -237.9 106.6 -230.1 127.7 -221.2C148.9 -212.3 171.2 -202.2 185.5 -185.5C199.8 -168.7 206 -145.3 216.3 -124.9C226.5 -104.4 240.6 -87 248.9 -66.7C257.3 -46.4 259.8 -23.2 262.3 0L0 0Z" fill="#dddddd"></path><path d="M0 -196.7C16.7 -192.5 33.3 -188.4 49.1 -183.4C65 -178.4 79.9 -172.6 95.8 -165.9C111.6 -159.2 128.4 -151.7 139.1 -139.1C149.8 -126.5 154.5 -109 162.2 -93.6C169.9 -78.3 180.5 -65.3 186.7 -50C192.9 -34.8 194.8 -17.4 196.7 0L0 0Z" fill="#e4e4e4"></path><path d="M0 -131.1C11.1 -128.4 22.2 -125.6 32.8 -122.3C43.3 -118.9 53.3 -115.1 63.9 -110.6C74.4 -106.1 85.6 -101.1 92.7 -92.7C99.9 -84.4 103 -72.6 108.1 -62.4C113.2 -52.2 120.3 -43.5 124.5 -33.4C128.6 -23.2 129.9 -11.6 131.1 0L0 0Z" fill="#ebebeb"></path><path d="M0 -65.6C5.6 -64.2 11.1 -62.8 16.4 -61.1C21.7 -59.5 26.6 -57.5 31.9 -55.3C37.2 -53.1 42.8 -50.6 46.4 -46.4C49.9 -42.2 51.5 -36.3 54.1 -31.2C56.6 -26.1 60.2 -21.8 62.2 -16.7C64.3 -11.6 64.9 -5.8 65.6 0L0 0Z" fill="#efefef"></path></g></svg>