<svg id="visual" viewBox="0 0 960 540" width="960" height="540" xmlns="http://www.w3.org/2000/svg" xmlns:xlink="http://www.w3.org/1999/xlink" version="1.1"><rect x="0" y="0" width="960" height="540" fill="#001220"></rect><path d="M0 366L22.8 371.2C45.7 376.3 91.3 386.7 137 382.8C182.7 379 228.3 361 274 358.3C319.7 355.7 365.3 368.3 411.2 370.5C457 372.7 503 364.3 548.8 354.8C594.7 345.3 640.3 334.7 686 329C731.7 323.3 777.3 322.7 823 327.5C868.7 332.3 914.3 342.7 937.2 347.8L960 353L960 541L937.2 541C914.3 541 868.7 541 823 541C777.3 541 731.7 541 686 541C640.3 541 594.7 541 548.8 541C503 541 457 541 411.2 541C365.3 541 319.7 541 274 541C228.3 541 182.7 541 137 541C91.3 541 45.7 541 22.8 541L0 541Z" fill="#fa7268"></path><path d="M0 358L22.8 359C45.7 360 91.3 362 137 369.3C182.7 376.7 228.3 389.3 274 388.5C319.7 387.7 365.3 373.3 411.2 366.3C457 359.3 503 359.7 548.8 362.3C594.7 365 640.3 370 686 379.3C731.7 388.7 777.3 402.3 823 403.5C868.7 404.7 914.3 393.3 937.2 387.7L960 382L960 541L937.2 541C914.3 541 868.7 541 823 541C777.3 541 731.7 541 686 541C640.3 541 594.7 541 548.8 541C503 541 457 541 411.2 541C365.3 541 319.7 541 274 541C228.3 541 182.7 541 137 541C91.3 541 45.7 541 22.8 541L0 541Z" fill="#ef5f67"></path><path d="M0 421L22.8 421.8C45.7 422.7 91.3 424.3 137 428.8C182.7 433.3 228.3 440.7 274 438.8C319.7 437 365.3 426 411.2 425.5C457 425 503 435 548.8 442.2C594.7 449.3 640.3 453.7 686 446.3C731.7 439 777.3 420 823 414.7C868.7 409.3 914.3 417.7 937.2 421.8L960 426L960 541L937.2 541C914.3 541 868.7 541 823 541C777.3 541 731.7 541 686 541C640.3 541 594.7 541 548.8 541C503 541 457 541 411.2 541C365.3 541 319.7 541 274 541C228.3 541 182.7 541 137 541C91.3 541 45.7 541 22.8 541L0 541Z" fill="#e34c67"></path><path d="M0 441L22.8 440.8C45.7 440.7 91.3 440.3 137 443.2C182.7 446 228.3 452 274 459.8C319.7 467.7 365.3 477.3 411.2 478.7C457 480 503 473 548.8 465.7C594.7 458.3 640.3 450.7 686 452C731.7 453.3 777.3 463.7 823 462C868.7 460.3 914.3 446.7 937.2 439.8L960 433L960 541L937.2 541C914.3 541 868.7 541 823 541C777.3 541 731.7 541 686 541C640.3 541 594.7 541 548.8 541C503 541 457 541 411.2 541C365.3 541 319.7 541 274 541C228.3 541 182.7 541 137 541C91.3 541 45.7 541 22.8 541L0 541Z" fill="#d53867"></path><path d="M0 480L22.8 482.8C45.7 485.7 91.3 491.3 137 497.2C182.7 503 228.3 509 274 511.5C319.7 514 365.3 513 411.2 510C457 507 503 502 548.8 497.2C594.7 492.3 640.3 487.7 686 489C731.7 490.3 777.3 497.7 823 503.2C868.7 508.7 914.3 512.3 937.2 514.2L960 516L960 541L937.2 541C914.3 541 868.7 541 823 541C777.3 541 731.7 541 686 541C640.3 541 594.7 541 548.8 541C503 541 457 541 411.2 541C365.3 541 319.7 541 274 541C228.3 541 182.7 541 137 541C91.3 541 45.7 541 22.8 541L0 541Z" fill="#c62368"></path></svg>